/* XPM */
static char *ae31ca514e6a4b76bda9e6e4eb3550ddgKrgQri8BcW3Unj2[] = {
/* columns rows colors chars-per-pixel */
"16 16 50 1 ",
"  c #3B362F",
". c #3E3931",
"X c #403B33",
"o c #413B34",
"O c #443D36",
"+ c #453E38",
"@ c #47423B",
"# c #48433B",
"$ c #49443B",
"% c #4B453C",
"& c #4D463E",
"* c #4F483F",
"= c #4F4840",
"- c #524B42",
"; c #534C43",
": c #534D45",
"> c #564F46",
", c #575146",
"< c #585146",
"1 c #5B5348",
"2 c #5D564B",
"3 c #5F574C",
"4 c #5F584D",
"5 c #60574E",
"6 c #60594E",
"7 c #625B50",
"8 c #635C51",
"9 c #675E52",
"0 c #675F54",
"q c #685F53",
"w c #685F54",
"e c #6B6357",
"r c #6D6558",
"t c #70685B",
"y c #71685D",
"u c #746B5D",
"i c #756D5F",
"p c #776E60",
"a c #786E62",
"s c #7A7163",
"d c #7C7364",
"f c #7F7467",
"g c #817667",
"h c #837769",
"j c #847969",
"k c #867A6C",
"l c #877D6D",
"z c #887C6D",
"x c #8C7F6F",
"c c #8B7F70",
/* pixels */
"wly@3<&erey6$ru3",
",zyO5p,&f:e-qr6*",
"-j9$ex,>j-e.q0OO",
"@<s-psq;f-e#-e&$",
"r=r&psq@-:io-6&6",
"r%6@lu9-o7=o-9 6",
"r*,%jr9&@9o6&wX<",
"ir@rz1j*,pO<9e$q",
"pj-0h19-@>9;e$-r",
"rc8>rg;7@@p:e.3a",
":p&@>j:96%a;r$1z",
"@p=3,k<j,>s-r-&a",
"Ol-4<i-e@8h*eo=q",
"@e9969-r@fe&eohq",
"-8f=1u:@dyg<=6>q",
"t0p#+73+qt9,oq2q"
};
