/* XPM */
static char *b3efbac4621a48298d5eb19c57811294CwdYErq9hysL5hgj[] = {
/* columns rows colors chars-per-pixel */
"16 16 50 1 ",
"  c #3B362F",
". c #3E3931",
"X c #403B33",
"o c #413B34",
"O c #443D36",
"+ c #453E38",
"@ c #46413A",
"# c #48433B",
"$ c #49443B",
"% c #4B453C",
"& c #4E473E",
"* c #4F483F",
"= c #4F4840",
"- c #524B41",
"; c #524C43",
": c #534D44",
"> c #554E44",
", c #565046",
"< c #595247",
"1 c #5B534A",
"2 c #5D564B",
"3 c #5D564C",
"4 c #5F584D",
"5 c #60574E",
"6 c #61594E",
"7 c #635A51",
"8 c #635C51",
"9 c #675E52",
"0 c #675F54",
"q c #685F53",
"w c #685F54",
"e c #686054",
"r c #6E665A",
"t c #70685B",
"y c #736A5D",
"u c #746B5E",
"i c #756D5F",
"p c #776D60",
"a c #786E62",
"s c #7A7063",
"d c #7C7364",
"f c #7D7465",
"g c #807467",
"h c #807468",
"j c #847969",
"k c #867A6C",
"l c #867C6D",
"z c #887D6C",
"x c #8C7F6F",
"c c #8B7F70",
/* pixels */
"q2qo,9tq+37+#p0t",
"q>6=<gyd@:u1=f8-",
"qhoe&ef@r-9699e@",
"q=oe*h8@e-i<4-lO",
"a&-r-s>,j<k,2=p@",
"z1$r;a%69:j>@&p:",
"a3.e:p@@7;gr>8cr",
"r-$e;9>@-91h0-jp",
"q$e9<Op,*j1zr@ri",
"<Xw&6o9@&9rj%,*r",
"6 9-o=7o-9ul@6%r",
"6&6-oi:-@qsp&r=r",
"$&e-#e-f;qsp-s<@",
"OO0q.e-j>,xe$9j-",
"*6rq-e:f&,p5Oyz,",
"3ur$6yere&<3@ylw"
};
