/* XPM */
static char *_c1aa3acb5f24fdede162f9e71160707BBlSfzZcSXXqGqG2[] = {
/* columns rows colors chars-per-pixel */
"16 16 31 1 ",
"  c #3F3B33",
". c #5E584C",
"X c #635D51",
"o c #807667",
"O c #8D806E",
"+ c #908473",
"@ c #988C7C",
"# c #9E9485",
"$ c #BCAE98",
"% c #CDBEAA",
"& c #D4C2AC",
"* c #DBCCB7",
"= c #DDCEBB",
"- c #E0CEB6",
"; c #E2D2BA",
": c #E4D5BE",
"> c #E6D7C1",
", c #E7D8C2",
"< c #E7D9C4",
"1 c #E8DBC5",
"2 c #EBDDC8",
"3 c #EFE1CE",
"4 c #F3E1CA",
"5 c #F5E4CE",
"6 c #F5E7D2",
"7 c #F7E8D4",
"8 c #F9EAD5",
"9 c #FCF3DE",
"0 c #FDF4DF",
"q c #FDF6E0",
"w c #FDF9E3",
/* pixels */
"640>59666406,806",
"60-Oo.o$6656w156",
"648>q9666406,806",
"Oo. .o=6495o@153",
"*#oOO%66$oX .o#*",
"468>q66646;q78;q",
"36&w59$O6606w106",
"*2<6;o. .o-:78-:",
"468659464606w106",
" .<w5466665q7O. ",
"  .oO-6969;Oo.  ",
"9686q996960q710q",
"96<64696965q,85q",
"3-8-oO. .-067106",
"*#Oo..   .+:712:",
"698>5696695-O.o-"
};
